<svg version="1.1" xmlns="http://www.w3.org/2000/svg" xmlns:xlink="http://www.w3.org/1999/xlink" data-browser="Chrome[57.0]" preserveAspectRatio="xMidYMid meet" viewBox="0 0 125 107"><g id="logo__item--logo_0" class="logo__item">
    <g class="logo__item__inner" transform="translate(-4.770165880740706 -11.5) scale(0.08839779005524862 0.08839779005524862) rotate(0 0 0)">
        
<g>
	<g>
		<path fill="#58a4b0" d="M925.3,693.9c0,0-247.1-295.5-31.2-522.5C894.1,171.4,1120.2,401.3,925.3,693.9z"></path>
		<path fill="#bac1b8" d="M777.4,589.6c0,0-301.3-98.3-249.7-350.9C527.7,238.8,785.6,300.5,777.4,589.6z"></path>
		<path fill="#272d2d" d="M526.6,517.4c0,0-190.9,54.9-252.9-94.3C273.6,423.1,429.2,364.4,526.6,517.4z"></path>
		<path fill="#0c7c59" d="M940.7,700.8c0,0-36.7-383.4,269.7-448.6C1210.5,252.2,1266.9,569.6,940.7,700.8z"></path>
		<path fill="#19e341" d="M922.6,692c0,0,233.7-306.2,502.7-145.7C1425.3,546.2,1251,817.5,922.6,692z"></path>
		<path fill="#272d2d" d="M936.5,700.5c0,0,354.7-150.2,508.9,122.4C1445.4,823,1159.7,972.3,936.5,700.5z"></path>
		<path fill="#bac1b8" d="M948.1,682c0,0,361.6,132.8,287.8,437.2C1236,1119.2,925.4,1032.9,948.1,682z"></path>
	</g>
	<g>
		<path fill="#58a4b0" d="M478.2,737.7c-135.8,0-245.9,110.1-245.9,245.9c0,135.8,110.1,245.9,245.9,245.9    c135.8,0,245.9-110.1,245.9-245.9C724.1,847.8,614,737.7,478.2,737.7z M478.2,1209.2c-124.6,0-225.6-101-225.6-225.6    c0-124.6,101-225.6,225.6-225.6c124.6,0,225.6,101,225.6,225.6C703.8,1108.2,602.8,1209.2,478.2,1209.2z M478.2,778.3    C374.6,778.3,289,855,275,954.8c11.1-14.8,28.7-24.4,48.6-24.4c33.6,0,60.8,27.2,60.8,60.8c0,33.6-27.2,60.8-60.8,60.8    c-17.8,0-33.7-7.7-44.9-19.9c21.8,90,102.8,156.7,199.5,156.7c79.2,0,147.8-44.9,182.1-110.5c-5.3,2.5-11.1,4-17.3,4    c-22.4,0-40.6-18.1-40.6-40.6c0-22.4,18.2-40.6,40.6-40.6c16.1,0,29.9,9.5,36.5,23.1c2.7-13.2,4.1-26.9,4.1-40.9    C683.5,870.2,591.6,778.3,478.2,778.3z M397.4,963c-15.2,0-27.6-12.4-27.6-27.6c0-15.2,12.4-27.6,27.6-27.6    c15.2,0,27.6,12.3,27.6,27.6C425,950.7,412.6,963,397.4,963z"></path>
		<g>
			<path fill="#19e341" d="M87.9,699.7v567.8c0,26.6,21.6,48.2,48.2,48.2h157.2V1270H136c-1.4,0-2.5-1.1-2.5-2.5V699.7     c0-1.4,1.1-2.5,2.5-2.5h157.2v-45.6H136C109.5,651.6,87.9,673.2,87.9,699.7z M931.9,651.6H739.3v45.6h192.6     c1.4,0,2.5,1.1,2.5,2.5v567.8c0,1.4-1.1,2.5-2.5,2.5H739.3v45.6h192.6c26.5,0,48.1-21.6,48.1-48.2V699.7     C980.1,673.2,958.5,651.6,931.9,651.6z"></path>
		</g>
	</g>
</g>

    </g>
</g></svg>